<?xml version="1.0" encoding="UTF-8"?>
<svg id="Layer_2" data-name="Layer 2" xmlns="http://www.w3.org/2000/svg" viewBox="0 0 871.65 783.85">
  <defs>
    <style>
      .cls-1 {
        fill: #4ac155;
      }

      .cls-2 {
        fill: #fff;
      }
    </style>
  </defs>
  <path class="cls-1" d="M864.5,233.01c-3.42-3.42-177.87-177.78-216.17-216.16-8.21-8.23-17.54-15.44-29.55-16.85H0v532.78c.78,2.92,4.07,14.5,7.64,18.08,3.42,3.42,177.71,177.62,215.98,215.97,8.64,8.66,18.52,16.21,31.47,17.02h616.56V249.32c-1.25-4.35-4.09-13.26-7.15-16.31Z"/>
  <path class="cls-2" d="M312.86,461.01l-.2-171.67s.08-.56.09-.58c.11-.65.43-3.36,3.17-7.79,1.48-2.4,2.66-4.29,5.02-7.2.58-.72,2.92-2.78,3.62-3.4.69-.6,1.38-1.16,2.08-1.67,3.85-2.82,8.35-4.63,13.01-5.65l225.75-49.58c.79-.17,1.51-.91,1.42-1.72l.03-63.59s0-.02,0-.04l-10.76-28.53c-.09-.8-.78-1.41-1.59-1.4l-8.21.06c-.13.01-.33.03-.46.05l-248.48,50.69c-.09.03-.19.05-.28.08-5.69,2.14-8.05,3.46-11.57,6.36-1.49,1.22-3.1,2.78-4.56,4.52-6.08,7.24-9.01,15.14-9.02,18.43v207"/>
  <path class="cls-2" d="M554.47,118.2c.84-.14,4.95.68,7.76,3.66,3.19,3.39,4.8,6.8,4.64,9.09v17.2"/>
  <polyline class="cls-2" points="525.03 228.54 525.03 340.48 566.81 363.87 566.81 211.77"/>
  <path class="cls-2" d="M522.84,224.79c-.33-.42-1.09-1.58-3.34-1.23l31.56-12.06c.24.09,10.76,3.17,9.54,4.85-1.54,2.11-35.56,13.14-35.56,12.25,0-.66-1.62-3.08-2.19-3.8Z"/>
  <path class="cls-2" d="M478.78,333.32c-83.78,0-151.69,67.91-151.69,151.69s67.91,151.69,151.69,151.69,151.69-67.91,151.69-151.69-67.91-151.69-151.69-151.69ZM478.78,592.28c-59.24,0-107.27-48.03-107.27-107.27s48.03-107.27,107.27-107.27,107.27,48.03,107.27,107.27-48.03,107.27-107.27,107.27Z"/>
  <polyline class="cls-2" points="568.13 606.92 647.54 687.78 678.16 659.18 598.82 576.62"/>
  <path class="cls-2" d="M647.54,687.77c8.07,4.78,19.99,3.87,26.97-2.19,7.27-6.32,7.86-17.57,3.66-26.4"/>
  <path class="cls-2" d="M311.46,448.1c9.72,37.55-31.86,80.81-72.2,93.57-8.5,2.69-35.04,11.09-61.52-2.5-4.13-2.12-25.21-12.93-32.76-36.26-11.58-35.77,19.13-68.59,25.26-74.77,26.39-26.62,61.35-27.72,69.35-27.97,9.12-.29,17.88,1.15,17.88,1.15s6.74,1.06,12.45,2.8c11.66,3.55,35.64,21.2,41.54,43.98Z"/>
</svg>